<svg width="120" height="120" viewBox="0 0 120 120" fill="none" xmlns="http://www.w3.org/2000/svg">
  <defs>
    <linearGradient id="logoGradient" x1="0%" y1="0%" x2="100%" y2="100%">
      <stop offset="0%" style="stop-color:#10B981;stop-opacity:1" />
      <stop offset="100%" style="stop-color:#3B82F6;stop-opacity:1" />
    </linearGradient>
  </defs>
  
  <!-- Background Circle -->
  <circle cx="60" cy="60" r="55" fill="url(#logoGradient)" opacity="0.1"/>
  <circle cx="60" cy="60" r="50" fill="url(#logoGradient)" opacity="0.2"/>
  <circle cx="60" cy="60" r="45" fill="url(#logoGradient)" opacity="0.3"/>
  
  <!-- Main Logo Design - Stylized G for Gluhoman -->
  <path d="M35 35 Q35 25 45 25 L75 25 Q85 25 85 35 L85 55 Q85 65 75 65 L60 65 L60 55 L70 55 L70 45 L55 45 Q45 45 45 55 L45 75 Q45 85 55 85 L75 85 Q85 85 85 95 L35 95 Q25 95 25 85 L25 45 Q25 35 35 35 Z" fill="url(#logoGradient)"/>
  
  <!-- Decorative Elements -->
  <circle cx="75" cy="35" r="3" fill="url(#logoGradient)" opacity="0.8"/>
  <circle cx="85" cy="45" r="2" fill="url(#logoGradient)" opacity="0.6"/>
  <circle cx="35" cy="85" r="2" fill="url(#logoGradient)" opacity="0.6"/>
</svg>